  0
SECTION
  2
HEADER
  9
$ACADVER
  1
AC1009
  9
$FILLMODE
 70
0
  9
$EXTMIN
 10
-0.8573
 20
-13.2845
 30
0.0000
  9
$EXTMAX
 10
56.0345
 20
51.0600
 30
0.0000
  0
ENDSEC
  0
SECTION
  2
TABLES
  0
TABLE
  2
LTYPE
 70
1
  0
LTYPE
  2
CONTINUOUS
 70
64
  3
Solid line
 72
65
 73
0
 40
0
  0
ENDTAB
  0
TABLE
  2
LAYER
 70
255
  0
LAYER
  2
20
 70
64
 62
30
  6
CONTINUOUS
  0
LAYER
  2
22
 70
64
 62
253
  6
CONTINUOUS
  0
LAYER
  2
52
 70
64
 62
253
  6
CONTINUOUS
  0
ENDTAB
  0
ENDSEC
  0
SECTION
  2
BLOCKS
  0
BLOCK
  8
0
  2
RECT
 70
64
 10
0.0000
 20
0.0000
 30
0.0000
  3
RECT
  0
SOLID
  8
0
 10
-0.5000
 20
-0.5000
 30
0.0000
 11
0.5000
 21
-0.5000
 31
0.0000
 12
-0.5000
 22
0.5000
 32
0.0000
 13
0.5000
 23
0.5000
 33
0.0000
  0
ENDBLK
  8
0
  0
BLOCK
  8
0
  2
PIE
 70
64
 10
0.0000
 20
0.0000
 30
0.0000
  3
PIE
  0
CIRCLE
  8
0
 10
0.0000
 20
0.0000
 30
0.0000
 40
0.5000
  0
ENDBLK
  8
0
  0
BLOCK
  8
0
  2
OCTAGONP
 70
64
 10
0.0000
 20
0.0000
 30
0.0000
  3
OCTAGONP
  0
POLYLINE
  8
0
 66
1
 10
0.0000
 20
0.0000
 30
0.0000
 40
0.0000
 41
0.0000
 70
1
  0
VERTEX
  8
0
 10
-0.5000
 20
-0.2071
 30
0.0000
  0
VERTEX
  8
0
 10
-0.5000
 20
0.2071
 30
0.0000
  0
VERTEX
  8
0
 10
-0.2071
 20
0.5000
 30
0.0000
  0
VERTEX
  8
0
 10
0.2071
 20
0.5000
 30
0.0000
  0
VERTEX
  8
0
 10
0.5000
 20
0.2071
 30
0.0000
  0
VERTEX
  8
0
 10
0.5000
 20
-0.2071
 30
0.0000
  0
VERTEX
  8
0
 10
0.2071
 20
-0.5000
 30
0.0000
  0
VERTEX
  8
0
 10
-0.2071
 20
-0.5000
 30
0.0000
  0
SEQEND
  8
0
  0
ENDBLK
  8
0
  0
BLOCK
  8
0
  2
SQUAREP
 70
64
 10
0.0000
 20
0.0000
 30
0.0000
  3
SQUAREP
  0
SOLID
  8
0
 10
-0.5000
 20
-0.5000
 30
0.0000
 11
0.5000
 21
-0.5000
 31
0.0000
 12
-0.5000
 22
0.5000
 32
0.0000
 13
0.5000
 23
0.5000
 33
0.0000
  0
ENDBLK
  8
0
  0
BLOCK
  8
0
  2
ROUNDP
 70
64
 10
0.0000
 20
0.0000
 30
0.0000
  3
ROUNDP
  0
CIRCLE
  8
0
 10
0.0000
 20
0.0000
 30
0.0000
 40
0.5000
  0
ENDBLK
  8
0
  0
BLOCK
  8
0
  2
ANNULUSP
 70
64
 10
0.0000
 20
0.0000
 30
0.0000
  3
ANNULUSP
  0
CIRCLE
  8
0
 10
0.0000
 20
0.0000
 30
0.0000
 40
0.5000
  0
ENDBLK
  8
0
  0
BLOCK
  8
0
  2
THERMALP
 70
64
 10
0.0000
 20
0.0000
 30
0.0000
  3
THERMALP
  0
LINE
  8
0
 10
-0.2379
 20
0.4500
 30
0.0000
 11
0.2379
 21
0.4500
 31
0.0000
  0
LINE
  8
0
 10
0.4500
 20
0.2379
 30
0.0000
 11
0.4500
 21
-0.2379
 31
0.0000
  0
LINE
  8
0
 10
0.2379
 20
-0.4500
 30
0.0000
 11
-0.2379
 21
-0.4500
 31
0.0000
  0
LINE
  8
0
 10
-0.4500
 20
-0.2379
 30
0.0000
 11
-0.4500
 21
0.2379
 31
0.0000
  0
ENDBLK
  8
0
  0
BLOCK
  8
0
  2
OCTAGONV
 70
64
 10
0.0000
 20
0.0000
 30
0.0000
  3
OCTAGONV
  0
POLYLINE
  8
0
 66
1
 10
0.0000
 20
0.0000
 30
0.0000
 40
0.0000
 41
0.0000
 70
1
  0
VERTEX
  8
0
 10
-0.5000
 20
-0.2071
 30
0.0000
  0
VERTEX
  8
0
 10
-0.5000
 20
0.2071
 30
0.0000
  0
VERTEX
  8
0
 10
-0.2071
 20
0.5000
 30
0.0000
  0
VERTEX
  8
0
 10
0.2071
 20
0.5000
 30
0.0000
  0
VERTEX
  8
0
 10
0.5000
 20
0.2071
 30
0.0000
  0
VERTEX
  8
0
 10
0.5000
 20
-0.2071
 30
0.0000
  0
VERTEX
  8
0
 10
0.2071
 20
-0.5000
 30
0.0000
  0
VERTEX
  8
0
 10
-0.2071
 20
-0.5000
 30
0.0000
  0
SEQEND
  8
0
  0
ENDBLK
  8
0
  0
BLOCK
  8
0
  2
SQUAREV
 70
64
 10
0.0000
 20
0.0000
 30
0.0000
  3
SQUAREV
  0
SOLID
  8
0
 10
-0.5000
 20
-0.5000
 30
0.0000
 11
0.5000
 21
-0.5000
 31
0.0000
 12
-0.5000
 22
0.5000
 32
0.0000
 13
0.5000
 23
0.5000
 33
0.0000
  0
ENDBLK
  8
0
  0
BLOCK
  8
0
  2
ROUNDV
 70
64
 10
0.0000
 20
0.0000
 30
0.0000
  3
ROUNDV
  0
CIRCLE
  8
0
 10
0.0000
 20
0.0000
 30
0.0000
 40
0.5000
  0
ENDBLK
  8
0
  0
BLOCK
  8
0
  2
ANNULUSV
 70
64
 10
0.0000
 20
0.0000
 30
0.0000
  3
ANNULUSV
  0
CIRCLE
  8
0
 10
0.0000
 20
0.0000
 30
0.0000
 40
0.5000
  0
ENDBLK
  8
0
  0
BLOCK
  8
0
  2
THERMALV
 70
64
 10
0.0000
 20
0.0000
 30
0.0000
  3
THERMALV
  0
LINE
  8
0
 10
-0.2379
 20
0.4500
 30
0.0000
 11
0.2379
 21
0.4500
 31
0.0000
  0
LINE
  8
0
 10
0.4500
 20
0.2379
 30
0.0000
 11
0.4500
 21
-0.2379
 31
0.0000
  0
LINE
  8
0
 10
0.2379
 20
-0.4500
 30
0.0000
 11
-0.2379
 21
-0.4500
 31
0.0000
  0
LINE
  8
0
 10
-0.4500
 20
-0.2379
 30
0.0000
 11
-0.4500
 21
0.2379
 31
0.0000
  0
ENDBLK
  8
0
  0
BLOCK
  8
0
  2
OFFSETP100
 70
64
 10
0.0000
 20
0.0000
 30
0.0000
  3
OFFSETP100
  0
POLYLINE
  8
0
 66
1
 10
0.0000
 20
0.0000
 30
0.0000
 40
0.0000
 41
0.0000
 70
1
  0
VERTEX
  8
0
 10
0.0000
 20
-0.5000
 30
0.0000
  0
VERTEX
  8
0
 10
1.0000
 20
-0.5000
 30
0.0000
 42
1.0000
  0
VERTEX
  8
0
 10
1.0000
 20
0.5000
 30
0.0000
  0
VERTEX
  8
0
 10
0.0000
 20
0.5000
 30
0.0000
 42
1.0000
  0
SEQEND
  8
0
  0
ENDBLK
  8
0
  0
ENDSEC
  0
SECTION
  2
ENTITIES
  0
LINE
  8
20
 10
1.0000
 20
29.0000
 30
0.0000
 11
38.0000
 21
29.0000
 31
0.0000
  0
ARC
  8
20
 10
38.0000
 20
28.0000
 30
0.0000
 40
1.0000
 50
0.0000
 51
90.0000
  0
LINE
  8
20
 10
39.0000
 20
28.0000
 30
0.0000
 11
39.0000
 21
1.0000
 31
0.0000
  0
ARC
  8
20
 10
38.0000
 20
1.0000
 30
0.0000
 40
1.0000
 50
270.0000
 51
0.0000
  0
LINE
  8
20
 10
38.0000
 20
0.0000
 30
0.0000
 11
1.0000
 21
0.0000
 31
0.0000
  0
ARC
  8
20
 10
1.0000
 20
1.0000
 30
0.0000
 40
1.0000
 50
180.0000
 51
270.0000
  0
LINE
  8
20
 10
0.0000
 20
1.0000
 30
0.0000
 11
0.0000
 21
28.0000
 31
0.0000
  0
ARC
  8
20
 10
1.0000
 20
28.0000
 30
0.0000
 40
1.0000
 50
90.0000
 51
180.0000
  0
LINE
  8
22
 10
21.7488
 20
1.6950
 30
0.0000
 11
35.0838
 21
1.6950
 31
0.0000
  0
LINE
  8
22
 10
35.0838
 20
1.6950
 30
0.0000
 11
35.0838
 21
5.6638
 31
0.0000
  0
LINE
  8
22
 10
35.0838
 20
5.6638
 30
0.0000
 11
21.7488
 21
5.6638
 31
0.0000
  0
LINE
  8
22
 10
21.7488
 20
5.6638
 30
0.0000
 11
21.7488
 21
1.8538
 31
0.0000
  0
LINE
  8
22
 10
21.7488
 20
1.8538
 30
0.0000
 11
21.7488
 21
1.6950
 31
0.0000
  0
LINE
  8
22
 10
13.2249
 20
2.2446
 30
0.0000
 11
13.2249
 21
3.1844
 31
0.0000
  0
LINE
  8
22
 10
13.2249
 20
2.8711
 30
0.0000
 11
12.9638
 21
2.8711
 31
0.0000
  0
ARC
  8
22
 10
12.9638
 20
2.7145
 30
0.0000
 40
0.1566
 50
90.0000
 51
179.9977
  0
LINE
  8
22
 10
12.8072
 20
2.7145
 30
0.0000
 11
12.8072
 21
2.2446
 31
0.0000
  0
LINE
  8
22
 10
12.4788
 20
2.8711
 30
0.0000
 11
12.1655
 21
2.8711
 31
0.0000
  0
LINE
  8
22
 10
12.3744
 20
3.1844
 30
0.0000
 11
12.3744
 21
2.4012
 31
0.0000
  0
ARC
  8
22
 10
12.2178
 20
2.4012
 30
0.0000
 40
0.1566
 50
270.0000
 51
0.0000
  0
LINE
  8
22
 10
12.2178
 20
2.2446
 30
0.0000
 11
12.1655
 21
2.2446
 31
0.0000
  0
LINE
  8
22
 10
11.8997
 20
2.8711
 30
0.0000
 11
11.5864
 21
2.8711
 31
0.0000
  0
LINE
  8
22
 10
11.7953
 20
3.1844
 30
0.0000
 11
11.7953
 21
2.4012
 31
0.0000
  0
ARC
  8
22
 10
11.6386
 20
2.4012
 30
0.0000
 40
0.1566
 50
270.0000
 51
0.0000
  0
LINE
  8
22
 10
11.6386
 20
2.2446
 30
0.0000
 11
11.5864
 21
2.2446
 31
0.0000
  0
LINE
  8
22
 10
11.2087
 20
1.9313
 30
0.0000
 11
11.2087
 21
2.8711
 31
0.0000
  0
LINE
  8
22
 10
11.2087
 20
2.8711
 30
0.0000
 11
10.9476
 21
2.8711
 31
0.0000
  0
ARC
  8
22
 10
10.9476
 20
2.7145
 30
0.0000
 40
0.1566
 50
90.0000
 51
179.9977
  0
LINE
  8
22
 10
10.7910
 20
2.7145
 30
0.0000
 11
10.7910
 21
2.4012
 31
0.0000
  0
ARC
  8
22
 10
10.9476
 20
2.4012
 30
0.0000
 40
0.1566
 50
180.0000
 51
270.0011
  0
LINE
  8
22
 10
10.9476
 20
2.2446
 30
0.0000
 11
11.2087
 21
2.2446
 31
0.0000
  0
LINE
  8
22
 10
10.4209
 20
2.3229
 30
0.0000
 11
10.4209
 21
2.3751
 31
0.0000
  0
LINE
  8
22
 10
10.4209
 20
2.3751
 30
0.0000
 11
10.3687
 21
2.3751
 31
0.0000
  0
LINE
  8
22
 10
10.3687
 20
2.3751
 30
0.0000
 11
10.3687
 21
2.3229
 31
0.0000
  0
LINE
  8
22
 10
10.3687
 20
2.3229
 30
0.0000
 11
10.4209
 21
2.3229
 31
0.0000
  0
LINE
  8
22
 10
10.4209
 20
2.7406
 30
0.0000
 11
10.4209
 21
2.7928
 31
0.0000
  0
LINE
  8
22
 10
10.4209
 20
2.7928
 30
0.0000
 11
10.3687
 21
2.7928
 31
0.0000
  0
LINE
  8
22
 10
10.3687
 20
2.7928
 30
0.0000
 11
10.3687
 21
2.7406
 31
0.0000
  0
LINE
  8
22
 10
10.3687
 20
2.7406
 30
0.0000
 11
10.4209
 21
2.7406
 31
0.0000
  0
LINE
  8
22
 10
10.0245
 20
2.1402
 30
0.0000
 11
9.6068
 21
3.2888
 31
0.0000
  0
LINE
  8
22
 10
9.2930
 20
2.1402
 30
0.0000
 11
8.8753
 21
3.2888
 31
0.0000
  0
LINE
  8
22
 10
8.1179
 20
2.2446
 30
0.0000
 11
8.3789
 21
2.2446
 31
0.0000
  0
ARC
  8
22
 10
8.3789
 20
2.4012
 30
0.0000
 40
0.1566
 50
270.0000
 51
0.0000
  0
LINE
  8
22
 10
8.5356
 20
2.4012
 30
0.0000
 11
8.5356
 21
2.7145
 31
0.0000
  0
ARC
  8
22
 10
8.3789
 20
2.7145
 30
0.0000
 40
0.1566
 50
0.0000
 51
90.0000
  0
LINE
  8
22
 10
8.3789
 20
2.8711
 30
0.0000
 11
8.1179
 21
2.8711
 31
0.0000
  0
LINE
  8
22
 10
8.1179
 20
2.8711
 30
0.0000
 11
8.1179
 21
2.0880
 31
0.0000
  0
ARC
  8
22
 10
8.2745
 20
2.0880
 30
0.0000
 40
0.1566
 50
180.0000
 51
270.0000
  0
LINE
  8
22
 10
8.2745
 20
1.9313
 30
0.0000
 11
8.4834
 21
1.9313
 31
0.0000
  0
LINE
  8
22
 10
7.7126
 20
2.2446
 30
0.0000
 11
7.7126
 21
2.8711
 31
0.0000
  0
LINE
  8
22
 10
7.7387
 20
3.1322
 30
0.0000
 11
7.7387
 21
3.1844
 31
0.0000
  0
LINE
  8
22
 10
7.7387
 20
3.1844
 30
0.0000
 11
7.6865
 21
3.1844
 31
0.0000
  0
LINE
  8
22
 10
7.6865
 20
3.1844
 30
0.0000
 11
7.6865
 21
3.1322
 31
0.0000
  0
LINE
  8
22
 10
7.6865
 20
3.1322
 30
0.0000
 11
7.7387
 21
3.1322
 31
0.0000
  0
LINE
  8
22
 10
7.4192
 20
2.8711
 30
0.0000
 11
7.1059
 21
2.8711
 31
0.0000
  0
LINE
  8
22
 10
7.3147
 20
3.1844
 30
0.0000
 11
7.3147
 21
2.4012
 31
0.0000
  0
ARC
  8
22
 10
7.1581
 20
2.4012
 30
0.0000
 40
0.1566
 50
270.0000
 51
0.0000
  0
LINE
  8
22
 10
7.1581
 20
2.2446
 30
0.0000
 11
7.1059
 21
2.2446
 31
0.0000
  0
LINE
  8
22
 10
6.7327
 20
2.2446
 30
0.0000
 11
6.7327
 21
3.1844
 31
0.0000
  0
LINE
  8
22
 10
6.7327
 20
2.8711
 30
0.0000
 11
6.4716
 21
2.8711
 31
0.0000
  0
ARC
  8
22
 10
6.4716
 20
2.7145
 30
0.0000
 40
0.1566
 50
90.0000
 51
179.9977
  0
LINE
  8
22
 10
6.3150
 20
2.7145
 30
0.0000
 11
6.3150
 21
2.2446
 31
0.0000
  0
LINE
  8
22
 10
5.8793
 20
2.8711
 30
0.0000
 11
5.8793
 21
2.4012
 31
0.0000
  0
ARC
  8
22
 10
5.7226
 20
2.4012
 30
0.0000
 40
0.1566
 50
270.0000
 51
0.0000
  0
LINE
  8
22
 10
5.7226
 20
2.2446
 30
0.0000
 11
5.4616
 21
2.2446
 31
0.0000
  0
LINE
  8
22
 10
5.4616
 20
2.2446
 30
0.0000
 11
5.4616
 21
2.8711
 31
0.0000
  0
LINE
  8
22
 10
5.0213
 20
3.1844
 30
0.0000
 11
5.0213
 21
2.2446
 31
0.0000
  0
LINE
  8
22
 10
5.0213
 20
2.2446
 30
0.0000
 11
4.7602
 21
2.2446
 31
0.0000
  0
ARC
  8
22
 10
4.7602
 20
2.4012
 30
0.0000
 40
0.1566
 50
180.0023
 51
270.0000
  0
LINE
  8
22
 10
4.6036
 20
2.4012
 30
0.0000
 11
4.6036
 21
2.7145
 31
0.0000
  0
ARC
  8
22
 10
4.7602
 20
2.7145
 30
0.0000
 40
0.1566
 50
89.9989
 51
180.0000
  0
LINE
  8
22
 10
4.7602
 20
2.8711
 30
0.0000
 11
5.0213
 21
2.8711
 31
0.0000
  0
LINE
  8
22
 10
4.2640
 20
2.2446
 30
0.0000
 11
4.2640
 21
2.2968
 31
0.0000
  0
LINE
  8
22
 10
4.2640
 20
2.2968
 30
0.0000
 11
4.2118
 21
2.2968
 31
0.0000
  0
LINE
  8
22
 10
4.2118
 20
2.2968
 30
0.0000
 11
4.2118
 21
2.2446
 31
0.0000
  0
LINE
  8
22
 10
4.2118
 20
2.2446
 30
0.0000
 11
4.2640
 21
2.2446
 31
0.0000
  0
LINE
  8
22
 10
3.5011
 20
2.2446
 30
0.0000
 11
3.7099
 21
2.2446
 31
0.0000
  0
ARC
  8
22
 10
3.7099
 20
2.4012
 30
0.0000
 40
0.1566
 50
270.0000
 51
0.0000
  0
LINE
  8
22
 10
3.8666
 20
2.4012
 30
0.0000
 11
3.8666
 21
2.7145
 31
0.0000
  0
ARC
  8
22
 10
3.7099
 20
2.7145
 30
0.0000
 40
0.1566
 50
0.0000
 51
90.0000
  0
LINE
  8
22
 10
3.7099
 20
2.8711
 30
0.0000
 11
3.5011
 21
2.8711
 31
0.0000
  0
LINE
  8
22
 10
3.1666
 20
2.4534
 30
0.0000
 11
3.1666
 21
2.6623
 31
0.0000
  0
ARC
  8
22
 10
2.9577
 20
2.6623
 30
0.0000
 40
0.2088
 50
0.0000
 51
180.0000
  0
LINE
  8
22
 10
2.7489
 20
2.6623
 30
0.0000
 11
2.7489
 21
2.4534
 31
0.0000
  0
ARC
  8
22
 10
2.9577
 20
2.4534
 30
0.0000
 40
0.2088
 50
180.0000
 51
0.0000
  0
LINE
  8
22
 10
2.3261
 20
2.2446
 30
0.0000
 11
2.3261
 21
2.8711
 31
0.0000
  0
LINE
  8
22
 10
2.3261
 20
2.8711
 30
0.0000
 11
1.8562
 21
2.8711
 31
0.0000
  0
ARC
  8
22
 10
1.8562
 20
2.7145
 30
0.0000
 40
0.1566
 50
90.0000
 51
180.0000
  0
LINE
  8
22
 10
1.6996
 20
2.7145
 30
0.0000
 11
1.6996
 21
2.2446
 31
0.0000
  0
LINE
  8
22
 10
2.0128
 20
2.2446
 30
0.0000
 11
2.0128
 21
2.8711
 31
0.0000
  0
LINE
  8
22
 10
1.3073
 20
2.1402
 30
0.0000
 11
0.8896
 21
3.2888
 31
0.0000
  0
LINE
  8
22
 10
12.8594
 20
0.9817
 30
0.0000
 11
13.1205
 21
1.0861
 31
0.0000
  0
ARC
  8
22
 10
13.0702
 20
1.2118
 30
0.0000
 40
0.1354
 50
291.8017
 51
90.8174
  0
ARC
  8
22
 10
13.0767
 20
0.7543
 30
0.0000
 40
0.5929
 50
90.8174
 51
114.2394
  0
ARC
  8
22
 10
12.9097
 20
0.8560
 30
0.0000
 40
0.1354
 50
111.8017
 51
270.8174
  0
ARC
  8
22
 10
12.8990
 20
1.6059
 30
0.0000
 40
0.8854
 50
270.8174
 51
289.7915
  0
LINE
  8
22
 10
12.4368
 20
1.3471
 30
0.0000
 11
12.2279
 21
0.7206
 31
0.0000
  0
LINE
  8
22
 10
12.2279
 20
0.7206
 30
0.0000
 11
12.0191
 21
1.3471
 31
0.0000
  0
LINE
  8
22
 10
11.2571
 20
0.7206
 30
0.0000
 11
11.5182
 21
0.7206
 31
0.0000
  0
ARC
  8
22
 10
11.5182
 20
0.8772
 30
0.0000
 40
0.1566
 50
270.0000
 51
0.0000
  0
LINE
  8
22
 10
11.6748
 20
0.8772
 30
0.0000
 11
11.6748
 21
1.1383
 31
0.0000
  0
ARC
  8
22
 10
11.4660
 20
1.1383
 30
0.0000
 40
0.2088
 50
0.0000
 51
180.0000
  0
LINE
  8
22
 10
11.2571
 20
1.1383
 30
0.0000
 11
11.2571
 21
1.0339
 31
0.0000
  0
LINE
  8
22
 10
11.2571
 20
1.0339
 30
0.0000
 11
11.6748
 21
1.0339
 31
0.0000
  0
LINE
  8
22
 10
10.8518
 20
0.7206
 30
0.0000
 11
10.8518
 21
1.3471
 31
0.0000
  0
LINE
  8
22
 10
10.8518
 20
1.3471
 30
0.0000
 11
10.5908
 21
1.3471
 31
0.0000
  0
ARC
  8
22
 10
10.5908
 20
1.1905
 30
0.0000
 40
0.1566
 50
90.0000
 51
179.9977
  0
LINE
  8
22
 10
10.4342
 20
1.1905
 30
0.0000
 11
10.4342
 21
0.7206
 31
0.0000
  0
LINE
  8
22
 10
9.9938
 20
0.4073
 30
0.0000
 11
9.9938
 21
1.3471
 31
0.0000
  0
LINE
  8
22
 10
9.9938
 20
1.3471
 30
0.0000
 11
9.7328
 21
1.3471
 31
0.0000
  0
ARC
  8
22
 10
9.7328
 20
1.1905
 30
0.0000
 40
0.1566
 50
90.0000
 51
179.9977
  0
LINE
  8
22
 10
9.5762
 20
1.1905
 30
0.0000
 11
9.5762
 21
0.8772
 31
0.0000
  0
ARC
  8
22
 10
9.7328
 20
0.8772
 30
0.0000
 40
0.1566
 50
180.0000
 51
270.0011
  0
LINE
  8
22
 10
9.7328
 20
0.7206
 30
0.0000
 11
9.9938
 21
0.7206
 31
0.0000
  0
LINE
  8
22
 10
8.7882
 20
0.7206
 30
0.0000
 11
9.0493
 21
0.7206
 31
0.0000
  0
ARC
  8
22
 10
9.0493
 20
0.8772
 30
0.0000
 40
0.1566
 50
270.0000
 51
0.0000
  0
LINE
  8
22
 10
9.2059
 20
0.8772
 30
0.0000
 11
9.2059
 21
1.1383
 31
0.0000
  0
ARC
  8
22
 10
8.9971
 20
1.1383
 30
0.0000
 40
0.2088
 50
0.0000
 51
180.0000
  0
LINE
  8
22
 10
8.7882
 20
1.1383
 30
0.0000
 11
8.7882
 21
1.0339
 31
0.0000
  0
LINE
  8
22
 10
8.7882
 20
1.0339
 30
0.0000
 11
9.2059
 21
1.0339
 31
0.0000
  0
LINE
  8
22
 10
8.4903
 20
1.3471
 30
0.0000
 11
8.1771
 21
1.3471
 31
0.0000
  0
LINE
  8
22
 10
8.3859
 20
1.6604
 30
0.0000
 11
8.3859
 21
0.8772
 31
0.0000
  0
ARC
  8
22
 10
8.2293
 20
0.8772
 30
0.0000
 40
0.1566
 50
270.0000
 51
0.0000
  0
LINE
  8
22
 10
8.2293
 20
0.7206
 30
0.0000
 11
8.1771
 21
0.7206
 31
0.0000
  0
LINE
  8
22
 10
7.4167
 20
0.7206
 30
0.0000
 11
7.6777
 21
0.7206
 31
0.0000
  0
ARC
  8
22
 10
7.6777
 20
0.8772
 30
0.0000
 40
0.1566
 50
270.0000
 51
0.0000
  0
LINE
  8
22
 10
7.8343
 20
0.8772
 30
0.0000
 11
7.8343
 21
1.1383
 31
0.0000
  0
ARC
  8
22
 10
7.6255
 20
1.1383
 30
0.0000
 40
0.2088
 50
0.0000
 51
180.0000
  0
LINE
  8
22
 10
7.4167
 20
1.1383
 30
0.0000
 11
7.4167
 21
1.0339
 31
0.0000
  0
LINE
  8
22
 10
7.4167
 20
1.0339
 30
0.0000
 11
7.8343
 21
1.0339
 31
0.0000
  0
LINE
  8
22
 10
7.0062
 20
0.7206
 30
0.0000
 11
7.0062
 21
1.3471
 31
0.0000
  0
LINE
  8
22
 10
7.0062
 20
1.3471
 30
0.0000
 11
6.6930
 21
1.3471
 31
0.0000
  0
LINE
  8
22
 10
6.6930
 20
1.3471
 30
0.0000
 11
6.6930
 21
1.2427
 31
0.0000
  0
LINE
  8
22
 10
6.0624
 20
0.9817
 30
0.0000
 11
6.3235
 21
1.0861
 31
0.0000
  0
ARC
  8
22
 10
6.2732
 20
1.2118
 30
0.0000
 40
0.1354
 50
291.8017
 51
90.8174
  0
ARC
  8
22
 10
6.2797
 20
0.7543
 30
0.0000
 40
0.5929
 50
90.8174
 51
114.2394
  0
ARC
  8
22
 10
6.1127
 20
0.8560
 30
0.0000
 40
0.1354
 50
111.8017
 51
270.8174
  0
ARC
  8
22
 10
6.1020
 20
1.6059
 30
0.0000
 40
0.8854
 50
270.8174
 51
289.7915
  0
LINE
  8
22
 10
5.1916
 20
0.7206
 30
0.0000
 11
5.4527
 21
0.7206
 31
0.0000
  0
ARC
  8
22
 10
5.4527
 20
0.8772
 30
0.0000
 40
0.1566
 50
270.0000
 51
0.0000
  0
LINE
  8
22
 10
5.6093
 20
0.8772
 30
0.0000
 11
5.6093
 21
1.1383
 31
0.0000
  0
ARC
  8
22
 10
5.4005
 20
1.1383
 30
0.0000
 40
0.2088
 50
0.0000
 51
180.0000
  0
LINE
  8
22
 10
5.1916
 20
1.1383
 30
0.0000
 11
5.1916
 21
1.0339
 31
0.0000
  0
LINE
  8
22
 10
5.1916
 20
1.0339
 30
0.0000
 11
5.6093
 21
1.0339
 31
0.0000
  0
LINE
  8
22
 10
4.7864
 20
0.7206
 30
0.0000
 11
4.7864
 21
1.3471
 31
0.0000
  0
LINE
  8
22
 10
4.7864
 20
1.3471
 30
0.0000
 11
4.5253
 21
1.3471
 31
0.0000
  0
ARC
  8
22
 10
4.5253
 20
1.1905
 30
0.0000
 40
0.1566
 50
90.0000
 51
179.9977
  0
LINE
  8
22
 10
4.3687
 20
1.1905
 30
0.0000
 11
4.3687
 21
0.7206
 31
0.0000
  0
LINE
  8
22
 10
3.9546
 20
1.4516
 30
0.0000
 11
3.6936
 21
1.6604
 31
0.0000
  0
LINE
  8
22
 10
3.6936
 20
1.6604
 30
0.0000
 11
3.6936
 21
0.7206
 31
0.0000
  0
LINE
  8
22
 10
3.9546
 20
0.7206
 30
0.0000
 11
3.4325
 21
0.7206
 31
0.0000
  0
LINE
  8
22
 10
2.5181
 20
1.1383
 30
0.0000
 11
2.8314
 21
1.1383
 31
0.0000
  0
ARC
  8
22
 10
2.8314
 20
1.3471
 30
0.0000
 40
0.2088
 50
270.0000
 51
0.0000
  0
LINE
  8
22
 10
3.0403
 20
1.3471
 30
0.0000
 11
3.0403
 21
1.3993
 31
0.0000
  0
ARC
  8
22
 10
2.7792
 20
1.3993
 30
0.0000
 40
0.2611
 50
0.0000
 51
180.0000
  0
LINE
  8
22
 10
2.5181
 20
1.3993
 30
0.0000
 11
2.5181
 21
1.1383
 31
0.0000
  0
ARC
  8
22
 10
2.9358
 20
1.1383
 30
0.0000
 40
0.4177
 50
180.0000
 51
270.0000
  0
LINE
  8
22
 10
2.1259
 20
1.2427
 30
0.0000
 11
1.8126
 21
1.2427
 31
0.0000
  0
ARC
  8
22
 10
1.8126
 20
1.0339
 30
0.0000
 40
0.2088
 50
90.0000
 51
180.0000
  0
LINE
  8
22
 10
1.6037
 20
1.0339
 30
0.0000
 11
1.6037
 21
0.9817
 31
0.0000
  0
ARC
  8
22
 10
1.8648
 20
0.9817
 30
0.0000
 40
0.2611
 50
180.0000
 51
0.0000
  0
LINE
  8
22
 10
2.1259
 20
0.9817
 30
0.0000
 11
2.1259
 21
1.2427
 31
0.0000
  0
ARC
  8
22
 10
1.7082
 20
1.2427
 30
0.0000
 40
0.4177
 50
0.0000
 51
90.0000
  0
LINE
  8
22
 10
1.2115
 20
0.7206
 30
0.0000
 11
0.8982
 21
0.7206
 31
0.0000
  0
ARC
  8
22
 10
0.8982
 20
0.9294
 30
0.0000
 40
0.2088
 50
180.0000
 51
270.0000
  0
LINE
  8
22
 10
0.6894
 20
0.9294
 30
0.0000
 11
0.6894
 21
1.0339
 31
0.0000
  0
ARC
  8
22
 10
0.8982
 20
1.0339
 30
0.0000
 40
0.2088
 50
90.0000
 51
180.0000
  0
LINE
  8
22
 10
0.8982
 20
1.2427
 30
0.0000
 11
1.2115
 21
1.2427
 31
0.0000
  0
LINE
  8
22
 10
1.2115
 20
1.2427
 30
0.0000
 11
1.2115
 21
1.6604
 31
0.0000
  0
LINE
  8
22
 10
1.2115
 20
1.6604
 30
0.0000
 11
0.6894
 21
1.6604
 31
0.0000
  0
LINE
  8
22
 10
11.3863
 20
19.9492
 30
0.0000
 11
11.3863
 21
18.7808
 31
0.0000
  0
LINE
  8
22
 10
11.3863
 20
18.7808
 30
0.0000
 11
10.8670
 21
18.7808
 31
0.0000
  0
LINE
  8
22
 10
10.4093
 20
19.5597
 30
0.0000
 11
10.4093
 21
18.9755
 31
0.0000
  0
ARC
  8
22
 10
10.2145
 20
18.9755
 30
0.0000
 40
0.1947
 50
270.0000
 51
0.0000
  0
LINE
  8
22
 10
10.2145
 20
18.7808
 30
0.0000
 11
9.8900
 21
18.7808
 31
0.0000
  0
LINE
  8
22
 10
9.8900
 20
18.7808
 30
0.0000
 11
9.8900
 21
19.5597
 31
0.0000
  0
LINE
  8
22
 10
9.3199
 20
18.7808
 30
0.0000
 11
9.3199
 21
19.5597
 31
0.0000
  0
LINE
  8
22
 10
9.3199
 20
19.5597
 30
0.0000
 11
8.7357
 21
19.5597
 31
0.0000
  0
ARC
  8
22
 10
8.7357
 20
19.3650
 30
0.0000
 40
0.1947
 50
90.0000
 51
180.0000
  0
LINE
  8
22
 10
8.5410
 20
19.3650
 30
0.0000
 11
8.5410
 21
18.7808
 31
0.0000
  0
LINE
  8
22
 10
8.9304
 20
18.7808
 30
0.0000
 11
8.9304
 21
19.5597
 31
0.0000
  0
LINE
  8
22
 10
7.9650
 20
19.9492
 30
0.0000
 11
7.9650
 21
18.7808
 31
0.0000
  0
LINE
  8
22
 10
7.9650
 20
18.7808
 30
0.0000
 11
7.6404
 21
18.7808
 31
0.0000
  0
ARC
  8
22
 10
7.6404
 20
18.9755
 30
0.0000
 40
0.1947
 50
180.0018
 51
270.0000
  0
LINE
  8
22
 10
7.4457
 20
18.9755
 30
0.0000
 11
7.4457
 21
19.3650
 31
0.0000
  0
ARC
  8
22
 10
7.6404
 20
19.3650
 30
0.0000
 40
0.1947
 50
89.9991
 51
180.0000
  0
LINE
  8
22
 10
7.6404
 20
19.5597
 30
0.0000
 11
7.9650
 21
19.5597
 31
0.0000
  0
LINE
  8
22
 10
6.4610
 20
18.7808
 30
0.0000
 11
6.7855
 21
18.7808
 31
0.0000
  0
ARC
  8
22
 10
6.7855
 20
18.9755
 30
0.0000
 40
0.1947
 50
270.0000
 51
0.0000
  0
LINE
  8
22
 10
6.9803
 20
18.9755
 30
0.0000
 11
6.9803
 21
19.3001
 31
0.0000
  0
ARC
  8
22
 10
6.7206
 20
19.3001
 30
0.0000
 40
0.2596
 50
0.0000
 51
180.0000
  0
LINE
  8
22
 10
6.4610
 20
19.3001
 30
0.0000
 11
6.4610
 21
19.1703
 31
0.0000
  0
LINE
  8
22
 10
6.4610
 20
19.1703
 30
0.0000
 11
6.9803
 21
19.1703
 31
0.0000
  0
LINE
  8
22
 10
5.9449
 20
18.7808
 30
0.0000
 11
5.9449
 21
19.5597
 31
0.0000
  0
LINE
  8
22
 10
5.9449
 20
19.5597
 30
0.0000
 11
5.5555
 21
19.5597
 31
0.0000
  0
LINE
  8
22
 10
5.5555
 20
19.5597
 30
0.0000
 11
5.5555
 21
19.4299
 31
0.0000
  0
LINE
  8
22
 10
4.6762
 20
18.7808
 30
0.0000
 11
5.0007
 21
18.7808
 31
0.0000
  0
ARC
  8
22
 10
5.0007
 20
18.9755
 30
0.0000
 40
0.1947
 50
270.0000
 51
0.0000
  0
LINE
  8
22
 10
5.1955
 20
18.9755
 30
0.0000
 11
5.1955
 21
19.3650
 31
0.0000
  0
ARC
  8
22
 10
5.0007
 20
19.3650
 30
0.0000
 40
0.1947
 50
0.0000
 51
90.0000
  0
LINE
  8
22
 10
5.0007
 20
19.5597
 30
0.0000
 11
4.6762
 21
19.5597
 31
0.0000
  0
LINE
  8
22
 10
4.6762
 20
19.5597
 30
0.0000
 11
4.6762
 21
18.5861
 31
0.0000
  0
ARC
  8
22
 10
4.8709
 20
18.5861
 30
0.0000
 40
0.1947
 50
180.0000
 51
270.0000
  0
LINE
  8
22
 10
4.8709
 20
18.3913
 30
0.0000
 11
5.1306
 21
18.3913
 31
0.0000
  0
ARC
  8
22
 10
9.6618
 20
17.1354
 30
0.0000
 40
0.2596
 50
180.0000
 51
270.0000
  0
ARC
  8
22
 10
9.6618
 20
17.4243
 30
0.0000
 40
0.5485
 50
269.9999
 51
315.2393
  0
ARC
  8
22
 10
9.7591
 20
17.7846
 30
0.0000
 40
0.2596
 50
0.0000
 51
90.0000
  0
ARC
  8
22
 10
9.7591
 20
17.5574
 30
0.0000
 40
0.4868
 50
90.0000
 51
126.8706
  0
ARC
  8
22
 10
9.7551
 20
17.7846
 30
0.0000
 40
0.2637
 50
300.5101
 51
359.9999
  0
ARC
  8
22
 10
9.6658
 20
17.1354
 30
0.0000
 40
0.2637
 50
120.5098
 51
180.0002
  0
LINE
  8
22
 10
9.5320
 20
17.3626
 30
0.0000
 11
9.8890
 21
17.5574
 31
0.0000
  0
LINE
  8
22
 10
9.0113
 20
18.0442
 30
0.0000
 11
8.6218
 21
16.8758
 31
0.0000
  0
LINE
  8
22
 10
8.6218
 20
16.8758
 30
0.0000
 11
8.2323
 21
18.0442
 31
0.0000
  0
LINE
  8
22
 10
7.8034
 20
16.8758
 30
0.0000
 11
7.4139
 21
16.8758
 31
0.0000
  0
ARC
  8
22
 10
7.4139
 20
17.1354
 30
0.0000
 40
0.2596
 50
180.0000
 51
270.0000
  0
LINE
  8
22
 10
7.1542
 20
17.1354
 30
0.0000
 11
7.1542
 21
17.2653
 31
0.0000
  0
ARC
  8
22
 10
7.4139
 20
17.2653
 30
0.0000
 40
0.2596
 50
90.0000
 51
180.0000
  0
LINE
  8
22
 10
7.4139
 20
17.5249
 30
0.0000
 11
7.8034
 21
17.5249
 31
0.0000
  0
LINE
  8
22
 10
7.8034
 20
17.5249
 30
0.0000
 11
7.8034
 21
18.0442
 31
0.0000
  0
LINE
  8
22
 10
7.8034
 20
18.0442
 30
0.0000
 11
7.1542
 21
18.0442
 31
0.0000
  0
ARC
  8
22
 10
5.6975
 20
17.4600
 30
0.0000
 40
0.9629
 50
359.9999
 51
25.9891
  0
ARC
  8
22
 10
6.3358
 20
17.8040
 30
0.0000
 40
0.2402
 50
18.9249
 51
90.0000
  0
ARC
  8
22
 10
6.3358
 20
17.8040
 30
0.0000
 40
0.2402
 50
90.0002
 51
161.0741
  0
ARC
  8
22
 10
6.9741
 20
17.4600
 30
0.0000
 40
0.9628
 50
154.0109
 51
180.0001
  0
ARC
  8
22
 10
5.6975
 20
17.4600
 30
0.0000
 40
0.9629
 50
334.0112
 51
360.0000
  0
ARC
  8
22
 10
6.3358
 20
17.1160
 30
0.0000
 40
0.2402
 50
270.0002
 51
341.0746
  0
ARC
  8
22
 10
6.9741
 20
17.4600
 30
0.0000
 40
0.9629
 50
180.0000
 51
205.9888
  0
ARC
  8
22
 10
6.3358
 20
17.1160
 30
0.0000
 40
0.2402
 50
198.9267
 51
270.0000
  0
LINE
  8
22
 10
6.5954
 20
17.1354
 30
0.0000
 11
6.0762
 21
17.7846
 31
0.0000
  0
LINE
  8
22
 10
33.2118
 20
4.9709
 30
0.0000
 11
33.2118
 21
4.5814
 31
0.0000
  0
LINE
  8
22
 10
33.2118
 20
4.5814
 30
0.0000
 11
32.9846
 21
4.2893
 31
0.0000
  0
LINE
  8
22
 10
33.4390
 20
4.2893
 30
0.0000
 11
33.2118
 21
4.5814
 31
0.0000
  0
LINE
  8
22
 10
33.2118
 20
4.5814
 30
0.0000
 11
32.8548
 21
4.7113
 31
0.0000
  0
LINE
  8
22
 10
33.2118
 20
4.5814
 30
0.0000
 11
33.5688
 21
4.7113
 31
0.0000
  0
ARC
  8
22
 10
32.0039
 20
4.3867
 30
0.0000
 40
0.2596
 50
180.0000
 51
270.0000
  0
ARC
  8
22
 10
32.0039
 20
4.6756
 30
0.0000
 40
0.5485
 50
269.9999
 51
315.2393
  0
ARC
  8
22
 10
32.1013
 20
5.0358
 30
0.0000
 40
0.2596
 50
0.0000
 51
90.0000
  0
ARC
  8
22
 10
32.1013
 20
4.8086
 30
0.0000
 40
0.4868
 50
90.0000
 51
126.8706
  0
ARC
  8
22
 10
32.0972
 20
5.0358
 30
0.0000
 40
0.2637
 50
300.5101
 51
359.9999
  0
ARC
  8
22
 10
32.0080
 20
4.3867
 30
0.0000
 40
0.2637
 50
120.5098
 51
180.0002
  0
LINE
  8
22
 10
31.8741
 20
4.6139
 30
0.0000
 11
32.2311
 21
4.8086
 31
0.0000
  0
LINE
  8
22
 10
31.2772
 20
4.5814
 30
0.0000
 11
30.4983
 21
4.5814
 31
0.0000
  0
LINE
  8
22
 10
30.0580
 20
5.2955
 30
0.0000
 11
29.6685
 21
4.1271
 31
0.0000
  0
LINE
  8
22
 10
29.6685
 20
4.1271
 30
0.0000
 11
29.2791
 21
5.2955
 31
0.0000
  0
LINE
  8
22
 10
28.8684
 20
4.1271
 30
0.0000
 11
28.8684
 21
4.9060
 31
0.0000
  0
LINE
  8
22
 10
28.9009
 20
5.2305
 30
0.0000
 11
28.9009
 21
5.2955
 31
0.0000
  0
LINE
  8
22
 10
28.9009
 20
5.2955
 30
0.0000
 11
28.8360
 21
5.2955
 31
0.0000
  0
LINE
  8
22
 10
28.8360
 20
5.2955
 30
0.0000
 11
28.8360
 21
5.2305
 31
0.0000
  0
LINE
  8
22
 10
28.8360
 20
5.2305
 30
0.0000
 11
28.9009
 21
5.2305
 31
0.0000
  0
LINE
  8
22
 10
27.8908
 20
5.2955
 30
0.0000
 11
27.8908
 21
4.1271
 31
0.0000
  0
LINE
  8
22
 10
27.8908
 20
4.1271
 30
0.0000
 11
28.2153
 21
4.1271
 31
0.0000
  0
ARC
  8
22
 10
28.2153
 20
4.3218
 30
0.0000
 40
0.1947
 50
270.0000
 51
0.0000
  0
LINE
  8
22
 10
28.4101
 20
4.3218
 30
0.0000
 11
28.4101
 21
4.7113
 31
0.0000
  0
ARC
  8
22
 10
28.2153
 20
4.7113
 30
0.0000
 40
0.1947
 50
0.0000
 51
90.0000
  0
LINE
  8
22
 10
28.2153
 20
4.9060
 30
0.0000
 11
27.8908
 21
4.9060
 31
0.0000
  0
LINE
  8
22
 10
26.8562
 20
4.1271
 30
0.0000
 11
27.1808
 21
4.1271
 31
0.0000
  0
ARC
  8
22
 10
27.1808
 20
4.3218
 30
0.0000
 40
0.1947
 50
270.0000
 51
0.0000
  0
LINE
  8
22
 10
27.3755
 20
4.3218
 30
0.0000
 11
27.3755
 21
4.6463
 31
0.0000
  0
ARC
  8
22
 10
27.1158
 20
4.6463
 30
0.0000
 40
0.2596
 50
0.0000
 51
180.0000
  0
LINE
  8
22
 10
26.8562
 20
4.6463
 30
0.0000
 11
26.8562
 21
4.5165
 31
0.0000
  0
LINE
  8
22
 10
26.8562
 20
4.5165
 30
0.0000
 11
27.3755
 21
4.5165
 31
0.0000
  0
LINE
  8
22
 10
26.3849
 20
4.3867
 30
0.0000
 11
26.3849
 21
4.6463
 31
0.0000
  0
ARC
  8
22
 10
26.1252
 20
4.6463
 30
0.0000
 40
0.2596
 50
0.0000
 51
180.0000
  0
LINE
  8
22
 10
25.8656
 20
4.6463
 30
0.0000
 11
25.8656
 21
4.3867
 31
0.0000
  0
ARC
  8
22
 10
26.1252
 20
4.3867
 30
0.0000
 40
0.2596
 50
180.0000
 51
0.0000
  0
LINE
  8
22
 10
24.7466
 20
4.1271
 30
0.0000
 11
24.7466
 21
4.9060
 31
0.0000
  0
LINE
  8
22
 10
24.7466
 20
4.9060
 30
0.0000
 11
24.4220
 21
4.9060
 31
0.0000
  0
ARC
  8
22
 10
24.4220
 20
4.7112
 30
0.0000
 40
0.1947
 50
90.0000
 51
179.9982
  0
LINE
  8
22
 10
24.2273
 20
4.7113
 30
0.0000
 11
24.2273
 21
4.1271
 31
0.0000
  0
LINE
  8
22
 10
23.7179
 20
4.3867
 30
0.0000
 11
23.7179
 21
4.6463
 31
0.0000
  0
ARC
  8
22
 10
23.4582
 20
4.6463
 30
0.0000
 40
0.2596
 50
0.0000
 51
180.0000
  0
LINE
  8
22
 10
23.1986
 20
4.6463
 30
0.0000
 11
23.1986
 21
4.3867
 31
0.0000
  0
ARC
  8
22
 10
23.4582
 20
4.3867
 30
0.0000
 40
0.2596
 50
180.0000
 51
0.0000
  0
LINE
  8
22
 10
22.8240
 20
4.9060
 30
0.0000
 11
22.4346
 21
4.9060
 31
0.0000
  0
LINE
  8
22
 10
22.6942
 20
5.2955
 30
0.0000
 11
22.6942
 21
4.3218
 31
0.0000
  0
ARC
  8
22
 10
22.4995
 20
4.3218
 30
0.0000
 40
0.1947
 50
270.0000
 51
0.0000
  0
LINE
  8
22
 10
22.4995
 20
4.1271
 30
0.0000
 11
22.4346
 21
4.1271
 31
0.0000
  0
LINE
  8
22
 10
33.9661
 20
2.4817
 30
0.0000
 11
33.9661
 21
2.7413
 31
0.0000
  0
ARC
  8
22
 10
33.7065
 20
2.7413
 30
0.0000
 40
0.2596
 50
0.0000
 51
180.0000
  0
LINE
  8
22
 10
33.4468
 20
2.7413
 30
0.0000
 11
33.4468
 21
2.4817
 31
0.0000
  0
ARC
  8
22
 10
33.7065
 20
2.4817
 30
0.0000
 40
0.2596
 50
180.0000
 51
0.0000
  0
LINE
  8
22
 10
32.9374
 20
2.2221
 30
0.0000
 11
32.9374
 21
3.0010
 31
0.0000
  0
LINE
  8
22
 10
32.9374
 20
3.0010
 30
0.0000
 11
32.6129
 21
3.0010
 31
0.0000
  0
ARC
  8
22
 10
32.6129
 20
2.8062
 30
0.0000
 40
0.1947
 50
90.0000
 51
179.9982
  0
LINE
  8
22
 10
32.4181
 20
2.8063
 30
0.0000
 11
32.4181
 21
2.2221
 31
0.0000
  0
LINE
  8
22
 10
30.7857
 20
2.6764
 30
0.0000
 11
31.0778
 21
2.6764
 31
0.0000
  0
ARC
  8
22
 10
31.0778
 20
2.4492
 30
0.0000
 40
0.2272
 50
270.0000
 51
90.0000
  0
LINE
  8
22
 10
31.0778
 20
2.2221
 30
0.0000
 11
30.7857
 21
2.2221
 31
0.0000
  0
LINE
  8
22
 10
30.7857
 20
2.2221
 30
0.0000
 11
30.7857
 21
2.8063
 31
0.0000
  0
ARC
  8
22
 10
30.9805
 20
2.8063
 30
0.0000
 40
0.1947
 50
89.9991
 51
180.0000
  0
LINE
  8
22
 10
30.9805
 20
3.0010
 30
0.0000
 11
31.2401
 21
3.0010
 31
0.0000
  0
LINE
  8
22
 10
30.2555
 20
3.3904
 30
0.0000
 11
30.2555
 21
2.4168
 31
0.0000
  0
ARC
  8
22
 10
30.0607
 20
2.4168
 30
0.0000
 40
0.1947
 50
270.0000
 51
0.0000
  0
LINE
  8
22
 10
29.6459
 20
3.3904
 30
0.0000
 11
29.6459
 21
2.4168
 31
0.0000
  0
ARC
  8
22
 10
29.4512
 20
2.4168
 30
0.0000
 40
0.1947
 50
270.0000
 51
0.0000
  0
LINE
  8
22
 10
28.3810
 20
2.2221
 30
0.0000
 11
28.3810
 21
3.0010
 31
0.0000
  0
LINE
  8
22
 10
28.3810
 20
3.0010
 30
0.0000
 11
27.7968
 21
3.0010
 31
0.0000
  0
ARC
  8
22
 10
27.7968
 20
2.8063
 30
0.0000
 40
0.1947
 50
90.0000
 51
180.0000
  0
LINE
  8
22
 10
27.6020
 20
2.8063
 30
0.0000
 11
27.6020
 21
2.2221
 31
0.0000
  0
LINE
  8
22
 10
27.9915
 20
2.2221
 30
0.0000
 11
27.9915
 21
3.0010
 31
0.0000
  0
LINE
  8
22
 10
27.0700
 20
2.4817
 30
0.0000
 11
27.0700
 21
2.7413
 31
0.0000
  0
ARC
  8
22
 10
26.8104
 20
2.7413
 30
0.0000
 40
0.2596
 50
0.0000
 51
180.0000
  0
LINE
  8
22
 10
26.5508
 20
2.7413
 30
0.0000
 11
26.5508
 21
2.4817
 31
0.0000
  0
ARC
  8
22
 10
26.8104
 20
2.4817
 30
0.0000
 40
0.2596
 50
180.0000
 51
0.0000
  0
LINE
  8
22
 10
25.5660
 20
3.3904
 30
0.0000
 11
25.5660
 21
2.2221
 31
0.0000
  0
LINE
  8
22
 10
25.5660
 20
2.2221
 30
0.0000
 11
25.8906
 21
2.2221
 31
0.0000
  0
ARC
  8
22
 10
25.8906
 20
2.4168
 30
0.0000
 40
0.1947
 50
270.0000
 51
0.0000
  0
LINE
  8
22
 10
26.0853
 20
2.4168
 30
0.0000
 11
26.0853
 21
2.8063
 31
0.0000
  0
ARC
  8
22
 10
25.8906
 20
2.8063
 30
0.0000
 40
0.1947
 50
0.0000
 51
90.0000
  0
LINE
  8
22
 10
25.8906
 20
3.0010
 30
0.0000
 11
25.5660
 21
3.0010
 31
0.0000
  0
LINE
  8
22
 10
24.5315
 20
2.2221
 30
0.0000
 11
24.8560
 21
2.2221
 31
0.0000
  0
ARC
  8
22
 10
24.8560
 20
2.4168
 30
0.0000
 40
0.1947
 50
270.0000
 51
0.0000
  0
LINE
  8
22
 10
25.0507
 20
2.4168
 30
0.0000
 11
25.0507
 21
2.7413
 31
0.0000
  0
ARC
  8
22
 10
24.7911
 20
2.7413
 30
0.0000
 40
0.2596
 50
0.0000
 51
180.0000
  0
LINE
  8
22
 10
24.5315
 20
2.7413
 30
0.0000
 11
24.5315
 21
2.6115
 31
0.0000
  0
LINE
  8
22
 10
24.5315
 20
2.6115
 30
0.0000
 11
25.0507
 21
2.6115
 31
0.0000
  0
LINE
  8
22
 10
24.0452
 20
3.3904
 30
0.0000
 11
24.0452
 21
2.4168
 31
0.0000
  0
ARC
  8
22
 10
23.8505
 20
2.4168
 30
0.0000
 40
0.1947
 50
270.0000
 51
0.0000
  0
LINE
  8
22
 10
23.0286
 20
2.5466
 30
0.0000
 11
23.3532
 21
2.6764
 31
0.0000
  0
ARC
  8
22
 10
23.2907
 20
2.8327
 30
0.0000
 40
0.1683
 50
291.8011
 51
90.8182
  0
ARC
  8
22
 10
23.2988
 20
2.2639
 30
0.0000
 40
0.7371
 50
90.8181
 51
114.2388
  0
ARC
  8
22
 10
23.0911
 20
2.3903
 30
0.0000
 40
0.1683
 50
111.8011
 51
270.8182
  0
ARC
  8
22
 10
23.0778
 20
3.3228
 30
0.0000
 40
1.1008
 50
270.8181
 51
289.7910
  0
LINE
  8
22
 10
22.4670
 20
2.6115
 30
0.0000
 11
22.4670
 21
3.3904
 31
0.0000
  0
LINE
  8
22
 10
22.4995
 20
2.2221
 30
0.0000
 11
22.4995
 21
2.2870
 31
0.0000
  0
LINE
  8
22
 10
22.4995
 20
2.2870
 30
0.0000
 11
22.4346
 21
2.2870
 31
0.0000
  0
LINE
  8
22
 10
22.4346
 20
2.2870
 30
0.0000
 11
22.4346
 21
2.2221
 31
0.0000
  0
LINE
  8
22
 10
22.4346
 20
2.2221
 30
0.0000
 11
22.4995
 21
2.2221
 31
0.0000
  0
LINE
  8
22
 10
26.2246
 20
10.3658
 30
0.0000
 11
26.2246
 21
10.1061
 31
0.0000
  0
ARC
  8
22
 10
26.4842
 20
10.1061
 30
0.0000
 40
0.2596
 50
180.0000
 51
270.0000
  0
LINE
  8
22
 10
26.4842
 20
9.8465
 30
0.0000
 11
27.1333
 21
9.8465
 31
0.0000
  0
ARC
  8
22
 10
27.1333
 20
10.1061
 30
0.0000
 40
0.2596
 50
270.0000
 51
359.9993
  0
LINE
  8
22
 10
27.3930
 20
10.1061
 30
0.0000
 11
27.3930
 21
10.3658
 31
0.0000
  0
LINE
  8
22
 10
26.4842
 20
10.7910
 30
0.0000
 11
26.7438
 21
10.7910
 31
0.0000
  0
ARC
  8
22
 10
26.7438
 20
11.0507
 30
0.0000
 40
0.2596
 50
270.0000
 51
90.0000
  0
LINE
  8
22
 10
26.7438
 20
11.3103
 30
0.0000
 11
26.4842
 21
11.3103
 31
0.0000
  0
ARC
  8
22
 10
26.4842
 20
11.0507
 30
0.0000
 40
0.2596
 50
90.0000
 51
270.0000
  0
LINE
  8
22
 10
27.0035
 20
11.7435
 30
0.0000
 11
26.2246
 21
12.0032
 31
0.0000
  0
LINE
  8
22
 10
26.2246
 20
12.0032
 30
0.0000
 11
27.0035
 21
12.2628
 31
0.0000
  0
LINE
  8
22
 10
26.2246
 20
13.2153
 30
0.0000
 11
26.2246
 21
12.8908
 31
0.0000
  0
ARC
  8
22
 10
26.4193
 20
12.8908
 30
0.0000
 40
0.1947
 50
180.0000
 51
270.0000
  0
LINE
  8
22
 10
26.4193
 20
12.6960
 30
0.0000
 11
26.7438
 21
12.6960
 31
0.0000
  0
ARC
  8
22
 10
26.7438
 20
12.9557
 30
0.0000
 40
0.2596
 50
270.0000
 51
90.0000
  0
LINE
  8
22
 10
26.7438
 20
13.2153
 30
0.0000
 11
26.6140
 21
13.2153
 31
0.0000
  0
LINE
  8
22
 10
26.6140
 20
13.2153
 30
0.0000
 11
26.6140
 21
12.6960
 31
0.0000
  0
LINE
  8
22
 10
26.2246
 20
13.7314
 30
0.0000
 11
27.0035
 21
13.7314
 31
0.0000
  0
LINE
  8
22
 10
27.0035
 20
13.7314
 30
0.0000
 11
27.0035
 21
14.1208
 31
0.0000
  0
LINE
  8
22
 10
27.0035
 20
14.1208
 30
0.0000
 11
26.8737
 21
14.1208
 31
0.0000
  0
LINE
  8
22
 10
27.3930
 20
15.1403
 30
0.0000
 11
26.2246
 21
15.1403
 31
0.0000
  0
LINE
  8
22
 10
26.2246
 20
15.1403
 30
0.0000
 11
26.2246
 21
15.4649
 31
0.0000
  0
ARC
  8
22
 10
26.4193
 20
15.4649
 30
0.0000
 40
0.1947
 50
90.0009
 51
180.0000
  0
LINE
  8
22
 10
26.4193
 20
15.6596
 30
0.0000
 11
26.8087
 21
15.6596
 31
0.0000
  0
ARC
  8
22
 10
26.8087
 20
15.4649
 30
0.0000
 40
0.1947
 50
0.0000
 51
90.0000
  0
LINE
  8
22
 10
27.0035
 20
15.4649
 30
0.0000
 11
27.0035
 21
15.1403
 31
0.0000
  0
LINE
  8
22
 10
26.4842
 20
16.1250
 30
0.0000
 11
26.7438
 21
16.1250
 31
0.0000
  0
ARC
  8
22
 10
26.7438
 20
16.3847
 30
0.0000
 40
0.2596
 50
270.0000
 51
90.0000
  0
LINE
  8
22
 10
26.7438
 20
16.6443
 30
0.0000
 11
26.4842
 21
16.6443
 31
0.0000
  0
ARC
  8
22
 10
26.4842
 20
16.3847
 30
0.0000
 40
0.2596
 50
90.0000
 51
270.0000
  0
LINE
  8
22
 10
27.0035
 20
17.0189
 30
0.0000
 11
27.0035
 21
17.4084
 31
0.0000
  0
LINE
  8
22
 10
27.3930
 20
17.1487
 30
0.0000
 11
26.4193
 21
17.1487
 31
0.0000
  0
ARC
  8
22
 10
26.4193
 20
17.3435
 30
0.0000
 40
0.1947
 50
180.0000
 51
270.0000
  0
LINE
  8
22
 10
26.2246
 20
17.3435
 30
0.0000
 11
26.2246
 21
17.4084
 31
0.0000
  0
LINE
  8
22
 10
27.0035
 20
17.7428
 30
0.0000
 11
27.0035
 21
18.1323
 31
0.0000
  0
LINE
  8
22
 10
27.3930
 20
17.8726
 30
0.0000
 11
26.4193
 21
17.8726
 31
0.0000
  0
ARC
  8
22
 10
26.4193
 20
18.0673
 30
0.0000
 40
0.1947
 50
180.0000
 51
270.0000
  0
LINE
  8
22
 10
26.2246
 20
18.0673
 30
0.0000
 11
26.2246
 21
18.1323
 31
0.0000
  0
LINE
  8
22
 10
26.4842
 20
18.5634
 30
0.0000
 11
26.7438
 21
18.5634
 31
0.0000
  0
ARC
  8
22
 10
26.7438
 20
18.8231
 30
0.0000
 40
0.2596
 50
270.0000
 51
90.0000
  0
LINE
  8
22
 10
26.7438
 20
19.0827
 30
0.0000
 11
26.4842
 21
19.0827
 31
0.0000
  0
ARC
  8
22
 10
26.4842
 20
18.8231
 30
0.0000
 40
0.2596
 50
90.0000
 51
270.0000
  0
LINE
  8
22
 10
26.2246
 20
19.6147
 30
0.0000
 11
27.0035
 21
19.6147
 31
0.0000
  0
LINE
  8
22
 10
27.0035
 20
19.6147
 30
0.0000
 11
27.0035
 21
20.1989
 31
0.0000
  0
ARC
  8
22
 10
26.8087
 20
20.1989
 30
0.0000
 40
0.1947
 50
0.0000
 51
90.0000
  0
LINE
  8
22
 10
26.8087
 20
20.3936
 30
0.0000
 11
26.2246
 21
20.3936
 31
0.0000
  0
LINE
  8
22
 10
26.2246
 20
20.0042
 30
0.0000
 11
27.0035
 21
20.0042
 31
0.0000
  0
LINE
  8
22
 10
26.5491
 20
21.9571
 30
0.0000
 11
26.6789
 21
21.6326
 31
0.0000
  0
ARC
  8
22
 10
26.8352
 20
21.6951
 30
0.0000
 40
0.1683
 50
201.8011
 51
0.8182
  0
ARC
  8
22
 10
26.2664
 20
21.6870
 30
0.0000
 40
0.7371
 50
0.8181
 51
24.2388
  0
ARC
  8
22
 10
26.3928
 20
21.8946
 30
0.0000
 40
0.1683
 50
21.8011
 51
180.8182
  0
ARC
  8
22
 10
27.3253
 20
21.9079
 30
0.0000
 40
1.1008
 50
180.8181
 51
199.7910
  0
LINE
  8
22
 10
26.2246
 20
22.5188
 30
0.0000
 11
27.0035
 21
22.5188
 31
0.0000
  0
LINE
  8
22
 10
27.3280
 20
22.4863
 30
0.0000
 11
27.3930
 21
22.4863
 31
0.0000
  0
LINE
  8
22
 10
27.3930
 20
22.4863
 30
0.0000
 11
27.3930
 21
22.5512
 31
0.0000
  0
LINE
  8
22
 10
27.3930
 20
22.5512
 30
0.0000
 11
27.3280
 21
22.5512
 31
0.0000
  0
LINE
  8
22
 10
27.3280
 20
22.5512
 30
0.0000
 11
27.3280
 21
22.4863
 31
0.0000
  0
LINE
  8
22
 10
27.3930
 20
23.4964
 30
0.0000
 11
26.2246
 21
23.4964
 31
0.0000
  0
LINE
  8
22
 10
26.2246
 20
23.4964
 30
0.0000
 11
26.2246
 21
23.1719
 31
0.0000
  0
ARC
  8
22
 10
26.4193
 20
23.1719
 30
0.0000
 40
0.1947
 50
180.0000
 51
270.0000
  0
LINE
  8
22
 10
26.4193
 20
22.9771
 30
0.0000
 11
26.8087
 21
22.9771
 31
0.0000
  0
ARC
  8
22
 10
26.8087
 20
23.1719
 30
0.0000
 40
0.1947
 50
270.0000
 51
0.0000
  0
LINE
  8
22
 10
27.0035
 20
23.1719
 30
0.0000
 11
27.0035
 21
23.4964
 31
0.0000
  0
LINE
  8
22
 10
26.2246
 20
24.5310
 30
0.0000
 11
26.2246
 21
24.2064
 31
0.0000
  0
ARC
  8
22
 10
26.4193
 20
24.2064
 30
0.0000
 40
0.1947
 50
180.0000
 51
270.0000
  0
LINE
  8
22
 10
26.4193
 20
24.0117
 30
0.0000
 11
26.7438
 21
24.0117
 31
0.0000
  0
ARC
  8
22
 10
26.7438
 20
24.2714
 30
0.0000
 40
0.2596
 50
270.0000
 51
90.0000
  0
LINE
  8
22
 10
26.7438
 20
24.5310
 30
0.0000
 11
26.6140
 21
24.5310
 31
0.0000
  0
LINE
  8
22
 10
26.6140
 20
24.5310
 30
0.0000
 11
26.6140
 21
24.0117
 31
0.0000
  0
LINE
  8
22
 10
25.0985
 20
8.4635
 30
0.0000
 11
25.0985
 21
8.8529
 31
0.0000
  0
LINE
  8
22
 10
25.4880
 20
8.5933
 30
0.0000
 11
24.5143
 21
8.5933
 31
0.0000
  0
ARC
  8
22
 10
24.5143
 20
8.7880
 30
0.0000
 40
0.1947
 50
180.0000
 51
270.0000
  0
LINE
  8
22
 10
24.3195
 20
8.7880
 30
0.0000
 11
24.3195
 21
8.8529
 31
0.0000
  0
LINE
  8
22
 10
24.5792
 20
9.2841
 30
0.0000
 11
24.8388
 21
9.2841
 31
0.0000
  0
ARC
  8
22
 10
24.8388
 20
9.5437
 30
0.0000
 40
0.2596
 50
270.0000
 51
90.0000
  0
LINE
  8
22
 10
24.8388
 20
9.8034
 30
0.0000
 11
24.5792
 21
9.8034
 31
0.0000
  0
ARC
  8
22
 10
24.5792
 20
9.5437
 30
0.0000
 40
0.2596
 50
90.0000
 51
270.0000
  0
LINE
  8
22
 10
23.9301
 20
10.9283
 30
0.0000
 11
25.0985
 21
10.9283
 31
0.0000
  0
LINE
  8
22
 10
25.0985
 20
10.9283
 30
0.0000
 11
25.0985
 21
11.2528
 31
0.0000
  0
ARC
  8
22
 10
24.9038
 20
11.2528
 30
0.0000
 40
0.1947
 50
0.0000
 51
90.0000
  0
LINE
  8
22
 10
24.9038
 20
11.4476
 30
0.0000
 11
24.5143
 21
11.4476
 31
0.0000
  0
ARC
  8
22
 10
24.5143
 20
11.2528
 30
0.0000
 40
0.1947
 50
90.0000
 51
180.0000
  0
LINE
  8
22
 10
24.3195
 20
11.2528
 30
0.0000
 11
24.3195
 21
10.9283
 31
0.0000
  0
LINE
  8
22
 10
24.3195
 20
11.9577
 30
0.0000
 11
25.0985
 21
11.9577
 31
0.0000
  0
LINE
  8
22
 10
25.0985
 20
11.9577
 30
0.0000
 11
25.0985
 21
12.3472
 31
0.0000
  0
LINE
  8
22
 10
25.0985
 20
12.3472
 30
0.0000
 11
24.9687
 21
12.3472
 31
0.0000
  0
LINE
  8
22
 10
24.3195
 20
13.2324
 30
0.0000
 11
24.3195
 21
12.9078
 31
0.0000
  0
ARC
  8
22
 10
24.5143
 20
12.9078
 30
0.0000
 40
0.1947
 50
180.0000
 51
270.0000
  0
LINE
  8
22
 10
24.5143
 20
12.7131
 30
0.0000
 11
24.8388
 21
12.7131
 31
0.0000
  0
ARC
  8
22
 10
24.8388
 20
12.9727
 30
0.0000
 40
0.2596
 50
270.0000
 51
90.0000
  0
LINE
  8
22
 10
24.8388
 20
13.2324
 30
0.0000
 11
24.7090
 21
13.2324
 31
0.0000
  0
LINE
  8
22
 10
24.7090
 20
13.2324
 30
0.0000
 11
24.7090
 21
12.7131
 31
0.0000
  0
LINE
  8
22
 10
25.0985
 20
13.6656
 30
0.0000
 11
24.3195
 21
13.9252
 31
0.0000
  0
LINE
  8
22
 10
24.3195
 20
13.9252
 30
0.0000
 11
25.0985
 21
14.1849
 31
0.0000
  0
LINE
  8
22
 10
24.3195
 20
15.1374
 30
0.0000
 11
24.3195
 21
14.8128
 31
0.0000
  0
ARC
  8
22
 10
24.5143
 20
14.8128
 30
0.0000
 40
0.1947
 50
180.0000
 51
270.0000
  0
LINE
  8
22
 10
24.5143
 20
14.6181
 30
0.0000
 11
24.8388
 21
14.6181
 31
0.0000
  0
ARC
  8
22
 10
24.8388
 20
14.8777
 30
0.0000
 40
0.2596
 50
270.0000
 51
90.0000
  0
LINE
  8
22
 10
24.8388
 20
15.1374
 30
0.0000
 11
24.7090
 21
15.1374
 31
0.0000
  0
LINE
  8
22
 10
24.7090
 20
15.1374
 30
0.0000
 11
24.7090
 21
14.6181
 31
0.0000
  0
LINE
  8
22
 10
24.3195
 20
15.6468
 30
0.0000
 11
25.0985
 21
15.6468
 31
0.0000
  0
LINE
  8
22
 10
25.0985
 20
15.6468
 30
0.0000
 11
25.0985
 21
15.9714
 31
0.0000
  0
ARC
  8
22
 10
24.9038
 20
15.9714
 30
0.0000
 40
0.1947
 50
0.0000
 51
90.0000
  0
LINE
  8
22
 10
24.9038
 20
16.1661
 30
0.0000
 11
24.3195
 21
16.1661
 31
0.0000
  0
LINE
  8
22
 10
25.0985
 20
16.5788
 30
0.0000
 11
25.0985
 21
16.9682
 31
0.0000
  0
LINE
  8
22
 10
25.4880
 20
16.7086
 30
0.0000
 11
24.5143
 21
16.7086
 31
0.0000
  0
ARC
  8
22
 10
24.5143
 20
16.9033
 30
0.0000
 40
0.1947
 50
180.0000
 51
270.0000
  0
LINE
  8
22
 10
24.3195
 20
16.9033
 30
0.0000
 11
24.3195
 21
16.9682
 31
0.0000
  0
LINE
  8
22
 10
24.6441
 20
18.4309
 30
0.0000
 11
24.7739
 21
18.1064
 31
0.0000
  0
ARC
  8
22
 10
24.9302
 20
18.1689
 30
0.0000
 40
0.1683
 50
201.8011
 51
0.8182
  0
ARC
  8
22
 10
24.3614
 20
18.1607
 30
0.0000
 40
0.7371
 50
0.8181
 51
24.2388
  0
ARC
  8
22
 10
24.4878
 20
18.3684
 30
0.0000
 40
0.1683
 50
21.8011
 51
180.8182
  0
ARC
  8
22
 10
25.4203
 20
18.3817
 30
0.0000
 40
1.1008
 50
180.8181
 51
199.7910
  0
LINE
  8
22
 10
24.3195
 20
19.4553
 30
0.0000
 11
24.3195
 21
19.1957
 31
0.0000
  0
ARC
  8
22
 10
24.5143
 20
19.1957
 30
0.0000
 40
0.1947
 50
180.0000
 51
270.0000
  0
LINE
  8
22
 10
24.5143
 20
19.0009
 30
0.0000
 11
24.9038
 21
19.0009
 31
0.0000
  0
ARC
  8
22
 10
24.9038
 20
19.1957
 30
0.0000
 40
0.1947
 50
270.0000
 51
0.0000
  0
LINE
  8
22
 10
25.0985
 20
19.1957
 30
0.0000
 11
25.0985
 21
19.4553
 31
0.0000
  0
LINE
  8
22
 10
24.3195
 20
19.9206
 30
0.0000
 11
25.0985
 21
19.9206
 31
0.0000
  0
LINE
  8
22
 10
25.0985
 20
19.9206
 30
0.0000
 11
25.0985
 21
20.3101
 31
0.0000
  0
LINE
  8
22
 10
25.0985
 20
20.3101
 30
0.0000
 11
24.9687
 21
20.3101
 31
0.0000
  0
LINE
  8
22
 10
24.7739
 20
21.1894
 30
0.0000
 11
24.7739
 21
20.8973
 31
0.0000
  0
ARC
  8
22
 10
24.5467
 20
20.8973
 30
0.0000
 40
0.2272
 50
180.0000
 51
0.0000
  0
LINE
  8
22
 10
24.3195
 20
20.8973
 30
0.0000
 11
24.3195
 21
21.1894
 31
0.0000
  0
LINE
  8
22
 10
24.3195
 20
21.1894
 30
0.0000
 11
24.9038
 21
21.1894
 31
0.0000
  0
ARC
  8
22
 10
24.9038
 20
20.9947
 30
0.0000
 40
0.1947
 50
0.0000
 51
90.0000
  0
LINE
  8
22
 10
25.0985
 20
20.9947
 30
0.0000
 11
25.0985
 21
20.7350
 31
0.0000
  0
LINE
  8
22
 10
25.0985
 20
21.6080
 30
0.0000
 11
25.0985
 21
21.9974
 31
0.0000
  0
LINE
  8
22
 10
25.4880
 20
21.7378
 30
0.0000
 11
24.5143
 21
21.7378
 31
0.0000
  0
ARC
  8
22
 10
24.5143
 20
21.9325
 30
0.0000
 40
0.1947
 50
180.0000
 51
270.0000
  0
LINE
  8
22
 10
24.3195
 20
21.9325
 30
0.0000
 11
24.3195
 21
21.9974
 31
0.0000
  0
LINE
  8
22
 10
24.3195
 20
22.8843
 30
0.0000
 11
24.3195
 21
22.6246
 31
0.0000
  0
ARC
  8
22
 10
24.5143
 20
22.6246
 30
0.0000
 40
0.1947
 50
180.0000
 51
270.0000
  0
LINE
  8
22
 10
24.5143
 20
22.4299
 30
0.0000
 11
24.9038
 21
22.4299
 31
0.0000
  0
ARC
  8
22
 10
24.9038
 20
22.6246
 30
0.0000
 40
0.1947
 50
270.0000
 51
0.0000
  0
LINE
  8
22
 10
25.0985
 20
22.6246
 30
0.0000
 11
25.0985
 21
22.8843
 31
0.0000
  0
LINE
  8
22
 10
24.3195
 20
23.3430
 30
0.0000
 11
25.4880
 21
23.3430
 31
0.0000
  0
LINE
  8
22
 10
25.0985
 20
23.3430
 30
0.0000
 11
25.0985
 21
23.6675
 31
0.0000
  0
ARC
  8
22
 10
24.9038
 20
23.6675
 30
0.0000
 40
0.1947
 50
0.0000
 51
90.0000
  0
LINE
  8
22
 10
24.9038
 20
23.8623
 30
0.0000
 11
24.3195
 21
23.8623
 31
0.0000
  0
LINE
  8
22
 10
24.3195
 20
24.8910
 30
0.0000
 11
24.3195
 21
24.5664
 31
0.0000
  0
ARC
  8
22
 10
24.5143
 20
24.5664
 30
0.0000
 40
0.1947
 50
180.0000
 51
270.0000
  0
LINE
  8
22
 10
24.5143
 20
24.3717
 30
0.0000
 11
24.8388
 21
24.3717
 31
0.0000
  0
ARC
  8
22
 10
24.8388
 20
24.6313
 30
0.0000
 40
0.2596
 50
270.0000
 51
90.0000
  0
LINE
  8
22
 10
24.8388
 20
24.8910
 30
0.0000
 11
24.7090
 21
24.8910
 31
0.0000
  0
LINE
  8
22
 10
24.7090
 20
24.8910
 30
0.0000
 11
24.7090
 21
24.3717
 31
0.0000
  0
LINE
  8
22
 10
24.6441
 20
25.7842
 30
0.0000
 11
24.7739
 21
25.4596
 31
0.0000
  0
ARC
  8
22
 10
24.9302
 20
25.5222
 30
0.0000
 40
0.1683
 50
201.8011
 51
0.8182
  0
ARC
  8
22
 10
24.3614
 20
25.5140
 30
0.0000
 40
0.7371
 50
0.8181
 51
24.2388
  0
ARC
  8
22
 10
24.4878
 20
25.7217
 30
0.0000
 40
0.1683
 50
21.8011
 51
180.8182
  0
ARC
  8
22
 10
25.4203
 20
25.7350
 30
0.0000
 40
1.1008
 50
180.8181
 51
199.7910
  0
ARC
  8
22
 10
8.0000
 20
22.2000
 30
0.0000
 40
1.1045
 50
185.1944
 51
354.8056
  0
LINE
  8
22
 10
13.7611
 20
16.2611
 30
0.0000
 11
13.5000
 21
16.4699
 31
0.0000
  0
LINE
  8
22
 10
13.5000
 20
16.4699
 30
0.0000
 11
13.5000
 21
15.5301
 31
0.0000
  0
LINE
  8
22
 10
13.7611
 20
15.5301
 30
0.0000
 11
13.2389
 21
15.5301
 31
0.0000
  0
ARC
  8
22
 10
7.9739
 20
10.8350
 30
0.0000
 40
0.2350
 50
90.0000
 51
180.0000
  0
ARC
  8
22
 10
7.9739
 20
10.7681
 30
0.0000
 40
0.3018
 50
17.9442
 51
90.0001
  0
ARC
  8
22
 10
7.9913
 20
10.8350
 30
0.0000
 40
0.2524
 50
180.0002
 51
226.3960
  0
LINE
  8
22
 10
7.8173
 20
10.6522
 30
0.0000
 11
8.2611
 21
10.1301
 31
0.0000
  0
LINE
  8
22
 10
8.2611
 20
10.1301
 30
0.0000
 11
7.7389
 21
10.1301
 31
0.0000
  0
LINE
  8
22
 10
2.9611
 20
15.5301
 30
0.0000
 11
2.7000
 21
15.5301
 31
0.0000
  0
ARC
  8
22
 10
2.7000
 20
15.7912
 30
0.0000
 40
0.2611
 50
90.0000
 51
270.0000
  0
LINE
  8
22
 10
2.9611
 20
16.4699
 30
0.0000
 11
2.6478
 21
16.4699
 31
0.0000
  0
ARC
  8
22
 10
2.6478
 20
16.2611
 30
0.0000
 40
0.2088
 50
90.0000
 51
270.0000
  0
LINE
  8
22
 10
2.6478
 20
16.0522
 30
0.0000
 11
2.8566
 21
16.0522
 31
0.0000
  0
LINE
  8
22
 10
11.7522
 20
12.5699
 30
0.0000
 11
11.9611
 21
11.8389
 31
0.0000
  0
LINE
  8
22
 10
11.9611
 20
11.8389
 30
0.0000
 11
11.4389
 21
11.8389
 31
0.0000
  0
LINE
  8
22
 10
11.5956
 20
12.0478
 30
0.0000
 11
11.5956
 21
11.6301
 31
0.0000
  0
LINE
  8
22
 10
4.4611
 20
11.6301
 30
0.0000
 11
4.1478
 21
11.6301
 31
0.0000
  0
ARC
  8
22
 10
4.1478
 20
11.8389
 30
0.0000
 40
0.2088
 50
180.0000
 51
270.0000
  0
LINE
  8
22
 10
3.9389
 20
11.8389
 30
0.0000
 11
3.9389
 21
11.9434
 31
0.0000
  0
ARC
  8
22
 10
4.1478
 20
11.9434
 30
0.0000
 40
0.2088
 50
90.0000
 51
180.0000
  0
LINE
  8
22
 10
4.1478
 20
12.1522
 30
0.0000
 11
4.4611
 21
12.1522
 31
0.0000
  0
LINE
  8
22
 10
4.4611
 20
12.1522
 30
0.0000
 11
4.4611
 21
12.5699
 31
0.0000
  0
LINE
  8
22
 10
4.4611
 20
12.5699
 30
0.0000
 11
3.9389
 21
12.5699
 31
0.0000
  0
CIRCLE
  8
22
 10
8.0000
 20
16.0000
 30
0.0000
 40
6.8000
  0
CIRCLE
  8
22
 10
8.0000
 20
16.0000
 30
0.0000
 40
6.2000
  0
CIRCLE
  8
52
 10
8.0000
 20
12.5000
 30
0.0000
 40
0.8000
  0
CIRCLE
  8
52
 10
11.5000
 20
16.0000
 30
0.0000
 40
0.8000
  0
CIRCLE
  8
52
 10
4.5000
 20
16.0000
 30
0.0000
 40
0.8000
  0
CIRCLE
  8
52
 10
10.4700
 20
13.5300
 30
0.0000
 40
0.8000
  0
CIRCLE
  8
52
 10
5.5300
 20
13.5300
 30
0.0000
 40
0.8000
  0
LINE
  8
22
 10
53.0924
 20
36.0189
 30
0.0000
 11
53.0924
 21
37.3651
 31
0.0000
  0
LINE
  8
22
 10
53.0924
 20
37.3651
 30
0.0000
 11
52.7184
 21
37.3651
 31
0.0000
  0
ARC
  8
22
 10
52.7184
 20
37.1407
 30
0.0000
 40
0.2244
 50
90.0000
 51
179.9992
  0
LINE
  8
22
 10
52.4940
 20
37.1408
 30
0.0000
 11
52.4940
 21
36.6920
 31
0.0000
  0
ARC
  8
22
 10
52.7184
 20
36.6920
 30
0.0000
 40
0.2244
 50
180.0000
 51
270.0000
  0
LINE
  8
22
 10
52.7184
 20
36.4676
 30
0.0000
 11
53.0924
 21
36.4676
 31
0.0000
  0
LINE
  8
22
 10
51.9027
 20
37.8139
 30
0.0000
 11
51.9027
 21
36.6920
 31
0.0000
  0
ARC
  8
22
 10
51.6784
 20
36.6920
 30
0.0000
 40
0.2244
 50
270.0008
 51
0.0000
  0
LINE
  8
22
 10
50.5948
 20
36.9912
 30
0.0000
 11
50.9314
 21
36.9912
 31
0.0000
  0
ARC
  8
22
 10
50.9314
 20
36.7294
 30
0.0000
 40
0.2618
 50
270.0000
 51
90.0000
  0
LINE
  8
22
 10
50.9314
 20
36.4676
 30
0.0000
 11
50.5948
 21
36.4676
 31
0.0000
  0
LINE
  8
22
 10
50.5948
 20
36.4676
 30
0.0000
 11
50.5948
 21
37.1408
 31
0.0000
  0
ARC
  8
22
 10
50.8192
 20
37.1408
 30
0.0000
 40
0.2244
 50
89.9992
 51
180.0000
  0
LINE
  8
22
 10
50.8192
 20
37.3651
 30
0.0000
 11
51.1184
 21
37.3651
 31
0.0000
  0
LINE
  8
22
 10
49.4271
 20
36.4676
 30
0.0000
 11
49.7263
 21
36.4676
 31
0.0000
  0
ARC
  8
22
 10
49.7263
 20
36.6920
 30
0.0000
 40
0.2244
 50
270.0000
 51
0.0008
  0
LINE
  8
22
 10
49.9506
 20
36.6920
 30
0.0000
 11
49.9506
 21
37.1408
 31
0.0000
  0
ARC
  8
22
 10
49.7263
 20
37.1408
 30
0.0000
 40
0.2244
 50
0.0000
 51
90.0000
  0
LINE
  8
22
 10
49.7263
 20
37.3651
 30
0.0000
 11
49.4271
 21
37.3651
 31
0.0000
  0
LINE
  8
22
 10
48.3048
 20
36.4676
 30
0.0000
 11
48.6788
 21
36.4676
 31
0.0000
  0
ARC
  8
22
 10
48.6788
 20
36.6920
 30
0.0000
 40
0.2244
 50
270.0000
 51
0.0008
  0
LINE
  8
22
 10
48.9031
 20
36.6920
 30
0.0000
 11
48.9031
 21
37.0660
 31
0.0000
  0
ARC
  8
22
 10
48.6040
 20
37.0660
 30
0.0000
 40
0.2992
 50
0.0000
 51
180.0000
  0
LINE
  8
22
 10
48.3048
 20
37.0660
 30
0.0000
 11
48.3048
 21
36.9164
 31
0.0000
  0
LINE
  8
22
 10
48.3048
 20
36.9164
 30
0.0000
 11
48.9031
 21
36.9164
 31
0.0000
  0
LINE
  8
22
 10
47.6382
 20
36.4676
 30
0.0000
 11
47.6382
 21
37.3651
 31
0.0000
  0
LINE
  8
22
 10
47.6382
 20
37.3651
 30
0.0000
 11
46.9651
 21
37.3651
 31
0.0000
  0
ARC
  8
22
 10
46.9651
 20
37.1407
 30
0.0000
 40
0.2244
 50
90.0000
 51
179.9992
  0
LINE
  8
22
 10
46.7408
 20
37.1408
 30
0.0000
 11
46.7408
 21
36.4676
 31
0.0000
  0
LINE
  8
22
 10
47.1895
 20
36.4676
 30
0.0000
 11
47.1895
 21
37.3651
 31
0.0000
  0
LINE
  8
22
 10
45.4759
 20
36.4676
 30
0.0000
 11
45.8498
 21
36.4676
 31
0.0000
  0
ARC
  8
22
 10
45.8498
 20
36.6920
 30
0.0000
 40
0.2244
 50
270.0000
 51
0.0008
  0
LINE
  8
22
 10
46.0742
 20
36.6920
 30
0.0000
 11
46.0742
 21
37.0660
 31
0.0000
  0
ARC
  8
22
 10
45.7750
 20
37.0660
 30
0.0000
 40
0.2992
 50
0.0000
 51
180.0000
  0
LINE
  8
22
 10
45.4759
 20
37.0660
 30
0.0000
 11
45.4759
 21
36.9164
 31
0.0000
  0
LINE
  8
22
 10
45.4759
 20
36.9164
 30
0.0000
 11
46.0742
 21
36.9164
 31
0.0000
  0
LINE
  8
22
 10
44.8422
 20
36.4676
 30
0.0000
 11
44.8422
 21
37.3651
 31
0.0000
  0
LINE
  8
22
 10
44.8422
 20
37.3651
 30
0.0000
 11
44.4683
 21
37.3651
 31
0.0000
  0
ARC
  8
22
 10
44.4683
 20
37.1407
 30
0.0000
 40
0.2244
 50
90.0000
 51
179.9992
  0
LINE
  8
22
 10
44.2439
 20
37.1408
 30
0.0000
 11
44.2439
 21
36.4676
 31
0.0000
  0
LINE
  8
22
 10
43.7315
 20
37.3651
 30
0.0000
 11
43.2827
 21
37.3651
 31
0.0000
  0
LINE
  8
22
 10
43.5819
 20
37.8139
 30
0.0000
 11
43.5819
 21
36.6920
 31
0.0000
  0
ARC
  8
22
 10
43.3575
 20
36.6920
 30
0.0000
 40
0.2244
 50
269.9992
 51
360.0000
  0
LINE
  8
22
 10
43.3575
 20
36.4676
 30
0.0000
 11
43.2827
 21
36.4676
 31
0.0000
  0
LINE
  8
22
 10
41.5271
 20
36.8416
 30
0.0000
 11
41.9011
 21
36.9912
 31
0.0000
  0
ARC
  8
22
 10
41.8291
 20
37.1712
 30
0.0000
 40
0.1939
 50
291.8014
 51
90.8190
  0
ARC
  8
22
 10
41.8384
 20
36.5159
 30
0.0000
 40
0.8493
 50
90.8190
 51
114.2391
  0
ARC
  8
22
 10
41.5991
 20
36.6615
 30
0.0000
 40
0.1939
 50
111.8014
 51
270.8190
  0
ARC
  8
22
 10
41.5838
 20
37.7360
 30
0.0000
 40
1.2684
 50
270.8190
 51
289.7904
  0
LINE
  8
22
 10
40.8269
 20
36.7668
 30
0.0000
 11
40.8269
 21
37.0660
 31
0.0000
  0
ARC
  8
22
 10
40.5278
 20
37.0660
 30
0.0000
 40
0.2992
 50
0.0000
 51
180.0000
  0
LINE
  8
22
 10
40.2286
 20
37.0660
 30
0.0000
 11
40.2286
 21
36.7668
 31
0.0000
  0
ARC
  8
22
 10
40.5278
 20
36.7668
 30
0.0000
 40
0.2992
 50
180.0000
 51
0.0000
  0
LINE
  8
22
 10
39.6287
 20
37.8139
 30
0.0000
 11
39.6287
 21
36.6920
 31
0.0000
  0
ARC
  8
22
 10
39.4043
 20
36.6920
 30
0.0000
 40
0.2244
 50
270.0008
 51
0.0000
  0
LINE
  8
22
 10
38.3208
 20
37.8139
 30
0.0000
 11
38.3208
 21
36.4676
 31
0.0000
  0
LINE
  8
22
 10
38.3208
 20
36.4676
 30
0.0000
 11
38.6947
 21
36.4676
 31
0.0000
  0
ARC
  8
22
 10
38.6947
 20
36.6920
 30
0.0000
 40
0.2244
 50
270.0000
 51
0.0008
  0
LINE
  8
22
 10
38.9191
 20
36.6920
 30
0.0000
 11
38.9191
 21
37.1408
 31
0.0000
  0
ARC
  8
22
 10
38.6947
 20
37.1408
 30
0.0000
 40
0.2244
 50
0.0000
 51
90.0000
  0
LINE
  8
22
 10
38.6947
 20
37.3651
 30
0.0000
 11
38.3208
 21
37.3651
 31
0.0000
  0
LINE
  8
22
 10
37.0802
 20
36.4676
 30
0.0000
 11
37.4542
 21
36.4676
 31
0.0000
  0
ARC
  8
22
 10
37.4542
 20
36.6920
 30
0.0000
 40
0.2244
 50
270.0000
 51
0.0008
  0
LINE
  8
22
 10
37.6785
 20
36.6920
 30
0.0000
 11
37.6785
 21
37.0660
 31
0.0000
  0
ARC
  8
22
 10
37.3794
 20
37.0660
 30
0.0000
 40
0.2992
 50
0.0000
 51
180.0000
  0
LINE
  8
22
 10
37.0802
 20
37.0660
 30
0.0000
 11
37.0802
 21
36.9164
 31
0.0000
  0
LINE
  8
22
 10
37.0802
 20
36.9164
 30
0.0000
 11
37.6785
 21
36.9164
 31
0.0000
  0
LINE
  8
22
 10
36.4369
 20
36.4676
 30
0.0000
 11
36.4369
 21
37.3651
 31
0.0000
  0
LINE
  8
22
 10
36.4369
 20
37.3651
 30
0.0000
 11
35.9881
 21
37.3651
 31
0.0000
  0
LINE
  8
22
 10
35.9881
 20
37.3651
 30
0.0000
 11
35.9881
 21
37.2155
 31
0.0000
  0
LINE
  8
22
 10
34.3178
 20
36.8416
 30
0.0000
 11
34.6918
 21
36.9912
 31
0.0000
  0
ARC
  8
22
 10
34.6198
 20
37.1712
 30
0.0000
 40
0.1939
 50
291.8014
 51
90.8190
  0
ARC
  8
22
 10
34.6291
 20
36.5159
 30
0.0000
 40
0.8493
 50
90.8190
 51
114.2391
  0
ARC
  8
22
 10
34.3899
 20
36.6615
 30
0.0000
 40
0.1939
 50
111.8014
 51
270.8190
  0
ARC
  8
22
 10
34.3745
 20
37.7360
 30
0.0000
 40
1.2684
 50
270.8190
 51
289.7904
  0
LINE
  8
22
 10
33.6379
 20
36.4676
 30
0.0000
 11
33.6379
 21
37.3651
 31
0.0000
  0
LINE
  8
22
 10
33.6753
 20
37.7391
 30
0.0000
 11
33.6753
 21
37.8139
 31
0.0000
  0
LINE
  8
22
 10
33.6753
 20
37.8139
 30
0.0000
 11
33.6005
 21
37.8139
 31
0.0000
  0
LINE
  8
22
 10
33.6005
 20
37.8139
 30
0.0000
 11
33.6005
 21
37.7391
 31
0.0000
  0
LINE
  8
22
 10
33.6005
 20
37.7391
 30
0.0000
 11
33.6753
 21
37.7391
 31
0.0000
  0
LINE
  8
22
 10
32.4804
 20
37.8139
 30
0.0000
 11
32.4804
 21
36.4676
 31
0.0000
  0
LINE
  8
22
 10
32.4804
 20
36.4676
 30
0.0000
 11
32.8543
 21
36.4676
 31
0.0000
  0
ARC
  8
22
 10
32.8543
 20
36.6920
 30
0.0000
 40
0.2244
 50
270.0000
 51
0.0008
  0
LINE
  8
22
 10
33.0787
 20
36.6920
 30
0.0000
 11
33.0787
 21
37.1408
 31
0.0000
  0
ARC
  8
22
 10
32.8543
 20
37.1408
 30
0.0000
 40
0.2244
 50
0.0000
 51
90.0000
  0
LINE
  8
22
 10
32.8543
 20
37.3651
 30
0.0000
 11
32.4804
 21
37.3651
 31
0.0000
  0
LINE
  8
22
 10
31.2398
 20
36.4676
 30
0.0000
 11
31.6138
 21
36.4676
 31
0.0000
  0
ARC
  8
22
 10
31.6138
 20
36.6920
 30
0.0000
 40
0.2244
 50
270.0000
 51
0.0008
  0
LINE
  8
22
 10
31.8381
 20
36.6920
 30
0.0000
 11
31.8381
 21
37.0660
 31
0.0000
  0
ARC
  8
22
 10
31.5390
 20
37.0660
 30
0.0000
 40
0.2992
 50
0.0000
 51
180.0000
  0
LINE
  8
22
 10
31.2398
 20
37.0660
 30
0.0000
 11
31.2398
 21
36.9164
 31
0.0000
  0
LINE
  8
22
 10
31.2398
 20
36.9164
 30
0.0000
 11
31.8381
 21
36.9164
 31
0.0000
  0
ENDSEC
  0
EOF
